<svg baseProfile="tiny" height="450px" version="1.2" width="450px" xmlns="http://www.w3.org/2000/svg" xmlns:ev="http://www.w3.org/2001/xml-events" xmlns:xlink="http://www.w3.org/1999/xlink"><defs /><rect fill="#ffffff" height="50" stroke="#000000" stroke-width="0.2" width="50" x="0" y="0" /><rect fill="#bfbfbf" height="50" stroke="#000000" stroke-width="0.2" width="50" x="50" y="0" /><rect fill="#ffffff" height="50" stroke="#000000" stroke-width="0.2" width="50" x="100" y="0" /><rect fill="#bfbfbf" height="50" stroke="#000000" stroke-width="0.2" width="50" x="150" y="0" /><rect fill="#ffffff" height="50" stroke="#000000" stroke-width="0.2" width="50" x="200" y="0" /><rect fill="#bfbfbf" height="50" stroke="#000000" stroke-width="0.2" width="50" x="250" y="0" /><rect fill="#ffffff" height="50" stroke="#000000" stroke-width="0.2" width="50" x="300" y="0" /><rect fill="#bfbfbf" height="50" stroke="#000000" stroke-width="0.2" width="50" x="350" y="0" /><rect fill="#bfbfbf" height="50" stroke="#000000" stroke-width="0.2" width="50" x="0" y="50" /><rect fill="#ffffff" height="50" stroke="#000000" stroke-width="0.2" width="50" x="50" y="50" /><rect fill="#bfbfbf" height="50" stroke="#000000" stroke-width="0.2" width="50" x="100" y="50" /><rect fill="#ffffff" height="50" stroke="#000000" stroke-width="0.2" width="50" x="150" y="50" /><rect fill="#bfbfbf" height="50" stroke="#000000" stroke-width="0.2" width="50" x="200" y="50" /><rect fill="#ffffff" height="50" stroke="#000000" stroke-width="0.2" width="50" x="250" y="50" /><rect fill="#bfbfbf" height="50" stroke="#000000" stroke-width="0.2" width="50" x="300" y="50" /><rect fill="#ffffff" height="50" stroke="#000000" stroke-width="0.2" width="50" x="350" y="50" /><rect fill="#ffffff" height="50" stroke="#000000" stroke-width="0.2" width="50" x="0" y="100" /><rect fill="#bfbfbf" height="50" stroke="#000000" stroke-width="0.2" width="50" x="50" y="100" /><rect fill="#ffffff" height="50" stroke="#000000" stroke-width="0.2" width="50" x="100" y="100" /><rect fill="#bfbfbf" height="50" stroke="#000000" stroke-width="0.2" width="50" x="150" y="100" /><rect fill="#ffffff" height="50" stroke="#000000" stroke-width="0.2" width="50" x="200" y="100" /><rect fill="#bfbfbf" height="50" stroke="#000000" stroke-width="0.2" width="50" x="250" y="100" /><rect fill="#ffffff" height="50" stroke="#000000" stroke-width="0.2" width="50" x="300" y="100" /><rect fill="#bfbfbf" height="50" stroke="#000000" stroke-width="0.2" width="50" x="350" y="100" /><rect fill="#bfbfbf" height="50" stroke="#000000" stroke-width="0.2" width="50" x="0" y="150" /><rect fill="#ffffff" height="50" stroke="#000000" stroke-width="0.2" width="50" x="50" y="150" /><rect fill="#bfbfbf" height="50" stroke="#000000" stroke-width="0.2" width="50" x="100" y="150" /><rect fill="#ffffff" height="50" stroke="#000000" stroke-width="0.2" width="50" x="150" y="150" /><rect fill="#bfbfbf" height="50" stroke="#000000" stroke-width="0.2" width="50" x="200" y="150" /><rect fill="#ffffff" height="50" stroke="#000000" stroke-width="0.2" width="50" x="250" y="150" /><rect fill="#bfbfbf" height="50" stroke="#000000" stroke-width="0.2" width="50" x="300" y="150" /><rect fill="#ffffff" height="50" stroke="#000000" stroke-width="0.2" width="50" x="350" y="150" /><rect fill="#ffffff" height="50" stroke="#000000" stroke-width="0.2" width="50" x="0" y="200" /><rect fill="#bfbfbf" height="50" stroke="#000000" stroke-width="0.2" width="50" x="50" y="200" /><rect fill="#ffffff" height="50" stroke="#000000" stroke-width="0.2" width="50" x="100" y="200" /><rect fill="#bfbfbf" height="50" stroke="#000000" stroke-width="0.2" width="50" x="150" y="200" /><rect fill="#ffffff" height="50" stroke="#000000" stroke-width="0.2" width="50" x="200" y="200" /><rect fill="#bfbfbf" height="50" stroke="#000000" stroke-width="0.2" width="50" x="250" y="200" /><rect fill="#ffffff" height="50" stroke="#000000" stroke-width="0.2" width="50" x="300" y="200" /><rect fill="#bfbfbf" height="50" stroke="#000000" stroke-width="0.2" width="50" x="350" y="200" /><rect fill="#bfbfbf" height="50" stroke="#000000" stroke-width="0.2" width="50" x="0" y="250" /><rect fill="#ffffff" height="50" stroke="#000000" stroke-width="0.2" width="50" x="50" y="250" /><rect fill="#bfbfbf" height="50" stroke="#000000" stroke-width="0.2" width="50" x="100" y="250" /><rect fill="#ffffff" height="50" stroke="#000000" stroke-width="0.2" width="50" x="150" y="250" /><rect fill="#bfbfbf" height="50" stroke="#000000" stroke-width="0.2" width="50" x="200" y="250" /><rect fill="#ffffff" height="50" stroke="#000000" stroke-width="0.2" width="50" x="250" y="250" /><rect fill="#bfbfbf" height="50" stroke="#000000" stroke-width="0.2" width="50" x="300" y="250" /><rect fill="#ffffff" height="50" stroke="#000000" stroke-width="0.2" width="50" x="350" y="250" /><rect fill="#ffffff" height="50" stroke="#000000" stroke-width="0.2" width="50" x="0" y="300" /><rect fill="#bfbfbf" height="50" stroke="#000000" stroke-width="0.2" width="50" x="50" y="300" /><rect fill="#ffffff" height="50" stroke="#000000" stroke-width="0.2" width="50" x="100" y="300" /><rect fill="#bfbfbf" height="50" stroke="#000000" stroke-width="0.2" width="50" x="150" y="300" /><rect fill="#ffffff" height="50" stroke="#000000" stroke-width="0.2" width="50" x="200" y="300" /><rect fill="#bfbfbf" height="50" stroke="#000000" stroke-width="0.2" width="50" x="250" y="300" /><rect fill="#ffffff" height="50" stroke="#000000" stroke-width="0.2" width="50" x="300" y="300" /><rect fill="#bfbfbf" height="50" stroke="#000000" stroke-width="0.2" width="50" x="350" y="300" /><rect fill="#bfbfbf" height="50" stroke="#000000" stroke-width="0.2" width="50" x="0" y="350" /><rect fill="#ffffff" height="50" stroke="#000000" stroke-width="0.2" width="50" x="50" y="350" /><rect fill="#bfbfbf" height="50" stroke="#000000" stroke-width="0.2" width="50" x="100" y="350" /><rect fill="#ffffff" height="50" stroke="#000000" stroke-width="0.2" width="50" x="150" y="350" /><rect fill="#bfbfbf" height="50" stroke="#000000" stroke-width="0.2" width="50" x="200" y="350" /><rect fill="#ffffff" height="50" stroke="#000000" stroke-width="0.2" width="50" x="250" y="350" /><rect fill="#bfbfbf" height="50" stroke="#000000" stroke-width="0.2" width="50" x="300" y="350" /><rect fill="#ffffff" height="50" stroke="#000000" stroke-width="0.2" width="50" x="350" y="350" /><image height="35" width="35" x="8" xlink:href="src/images/white_rook.svg" y="7" /><image height="35" width="35" x="108" xlink:href="src/images/white_bishop.svg" y="7" /><image height="35" width="35" x="158" xlink:href="src/images/white_king.svg" y="7" /><image height="35" width="35" x="208" xlink:href="src/images/white_queen.svg" y="7" /><image height="35" width="35" x="258" xlink:href="src/images/white_bishop.svg" y="7" /><image height="35" width="35" x="307" xlink:href="src/images/white_knight.svg" y="7" /><image height="35" width="35" x="358" xlink:href="src/images/white_rook.svg" y="7" /><image height="35" width="35" x="8" xlink:href="src/images/white_pawn.svg" y="57" /><image height="35" width="35" x="58" xlink:href="src/images/white_pawn.svg" y="57" /><image height="35" width="35" x="108" xlink:href="src/images/white_pawn.svg" y="57" /><image height="35" width="35" x="208" xlink:href="src/images/white_pawn.svg" y="57" /><image height="35" width="35" x="258" xlink:href="src/images/white_pawn.svg" y="57" /><image height="35" width="35" x="308" xlink:href="src/images/white_pawn.svg" y="57" /><image height="35" width="35" x="358" xlink:href="src/images/white_pawn.svg" y="57" /><image height="35" width="35" x="107" xlink:href="src/images/white_knight.svg" y="107" /><image height="35" width="35" x="158" xlink:href="src/images/white_pawn.svg" y="157" /><image height="35" width="35" x="158" xlink:href="src/images/black_pawn.svg" y="207" /><image height="35" width="35" x="257" xlink:href="src/images/black_knight.svg" y="257" /><image height="35" width="35" x="8" xlink:href="src/images/black_pawn.svg" y="307" /><image height="35" width="35" x="58" xlink:href="src/images/black_pawn.svg" y="307" /><image height="35" width="35" x="108" xlink:href="src/images/black_pawn.svg" y="307" /><image height="35" width="35" x="208" xlink:href="src/images/black_pawn.svg" y="307" /><image height="35" width="35" x="258" xlink:href="src/images/black_pawn.svg" y="307" /><image height="35" width="35" x="308" xlink:href="src/images/black_pawn.svg" y="307" /><image height="35" width="35" x="358" xlink:href="src/images/black_pawn.svg" y="307" /><image height="35" width="35" x="8" xlink:href="src/images/black_rook.svg" y="357" /><image height="35" width="35" x="57" xlink:href="src/images/black_knight.svg" y="357" /><image height="35" width="35" x="108" xlink:href="src/images/black_bishop.svg" y="357" /><image height="35" width="35" x="158" xlink:href="src/images/black_king.svg" y="357" /><image height="35" width="35" x="208" xlink:href="src/images/black_queen.svg" y="357" /><image height="35" width="35" x="258" xlink:href="src/images/black_bishop.svg" y="357" /><image height="35" width="35" x="358" xlink:href="src/images/black_rook.svg" y="357" /><text fill="#3d3d3d" font-family="serif" font-size="20" text-anchor="middle" x="415" y="380">8</text><text fill="#3d3d3d" font-family="serif" font-size="20" text-anchor="middle" x="25" y="425">h</text><text fill="#3d3d3d" font-family="serif" font-size="20" text-anchor="middle" x="415" y="330">7</text><text fill="#3d3d3d" font-family="serif" font-size="20" text-anchor="middle" x="75" y="425">g</text><text fill="#3d3d3d" font-family="serif" font-size="20" text-anchor="middle" x="415" y="280">6</text><text fill="#3d3d3d" font-family="serif" font-size="20" text-anchor="middle" x="125" y="425">f</text><text fill="#3d3d3d" font-family="serif" font-size="20" text-anchor="middle" x="415" y="230">5</text><text fill="#3d3d3d" font-family="serif" font-size="20" text-anchor="middle" x="175" y="425">e</text><text fill="#3d3d3d" font-family="serif" font-size="20" text-anchor="middle" x="415" y="180">4</text><text fill="#3d3d3d" font-family="serif" font-size="20" text-anchor="middle" x="225" y="425">d</text><text fill="#3d3d3d" font-family="serif" font-size="20" text-anchor="middle" x="415" y="130">3</text><text fill="#3d3d3d" font-family="serif" font-size="20" text-anchor="middle" x="275" y="425">c</text><text fill="#3d3d3d" font-family="serif" font-size="20" text-anchor="middle" x="415" y="80">2</text><text fill="#3d3d3d" font-family="serif" font-size="20" text-anchor="middle" x="325" y="425">b</text><text fill="#3d3d3d" font-family="serif" font-size="20" text-anchor="middle" x="415" y="30">1</text><text fill="#3d3d3d" font-family="serif" font-size="20" text-anchor="middle" x="375" y="425">a</text></svg>